# xmcd CD database file
#
# Track frame offsets:
#	150
#	14120
#	36951
#	57919
#	78623
#	101265
#	130905
#	146321
#	160073
#	187465
#	209597
#	223464
#	246050
#	256811
#
# Disc length: 3785 seconds
#
# Revision: 0
# Processed by: cddbd v1.5.2PL0 Copyright (c) Steve Scherf et al.
# Submitted via: CDex 1.51
#
DISCID=d50ec70e
DTITLE=Bad Town Blues - Down In The Alley
DYEAR=2002
DGENRE=Blues
TTITLE0=Bad Town Shuffle
TTITLE1=Driving This Road
TTITLE2=Right This Time
TTITLE3=Baby What You Doin' To Me
TTITLE4=New Age Blues
TTITLE5=Life In The Slow Lane
TTITLE6=Late Night Creeper
TTITLE7=Summerland Boogie
TTITLE8=Dog Tired
TTITLE9=Grape And Grain
TTITLE10=Down In The Alley
TTITLE11=Peace of Mind
TTITLE12=Chigwell Fats Boogie
TTITLE13=You Get What You Get
EXTD=YEAR: 2002
EXTT0=
EXTT1=
EXTT2=
EXTT3=
EXTT4=
EXTT5=
EXTT6=
EXTT7=
EXTT8=
EXTT9=
EXTT10=
EXTT11=
EXTT12=
EXTT13=
PLAYORDER=
